<?xml version="1.0" encoding="utf-8"?>
<!-- Generator: Adobe Illustrator 23.0.1, SVG Export Plug-In . SVG Version: 6.00 Build 0)  -->
<svg version="1.0" id="Layer_1" xmlns="http://www.w3.org/2000/svg" xmlns:xlink="http://www.w3.org/1999/xlink" x="0px" y="0px"
	 viewBox="0 0 252.6 200.7" style="enable-background:new 0 0 252.6 200.7;" xml:space="preserve">
<style type="text/css">
	.st0{fill:#FFFFFF;}
</style>
<g>
	<path class="st0" d="M224.1,20.6l-174,174c-1.3,1.3-3.3,1.3-4.6,0l-9.9-9.9c-1.3-1.3-1.3-3.3,0-4.6l174-174c1.3-1.3,3.3-1.3,4.6,0
		l9.9,9.9C225.4,17.3,225.4,19.4,224.1,20.6z"/>
	<path class="st0" d="M209.6,194.6l-174-174c-1.3-1.3-1.3-3.3,0-4.6l9.9-9.9c1.3-1.3,3.3-1.3,4.6,0l174,174c1.3,1.3,1.3,3.3,0,4.6
		l-9.9,9.9C212.9,195.9,210.9,195.9,209.6,194.6z"/>
</g>
</svg>
